<?xml version="1.0" standalone="no"?>
<!DOCTYPE svg PUBLIC "-//W3C//DTD SVG 20010904//EN"
 "http://www.w3.org/TR/2001/REC-SVG-20010904/DTD/svg10.dtd">
<svg version="1.0" xmlns="http://www.w3.org/2000/svg"
 width="358.2pt" height="350.1pt" viewBox="140.2 146.3 358.2 350.1"
 preserveAspectRatio="xMidYMid meet">
<metadata>
Created by potrace 1.15, written by Peter Selinger 2001-2017
</metadata>
<g transform="translate(0.000000,640.000000) scale(0.100000,-0.100000)"
fill="#000000" stroke="none">
<path d="M3765 4904 c-95 -33 -272 -69 -440 -88 -478 -56 -462 -53 -526 -87
-94 -50 -155 -132 -185 -249 -22 -86 -15 -242 14 -325 11 -33 19 -61 17 -63
-7 -7 -65 105 -87 168 -32 92 -32 270 0 349 12 30 19 57 17 60 -3 3 -40 -5
-83 -18 -205 -59 -528 -263 -576 -365 -21 -45 -20 -86 5 -176 40 -148 129
-301 265 -455 l79 -89 -50 34 c-80 56 -238 218 -295 304 -29 44 -68 113 -86
155 -18 42 -37 77 -43 79 -18 6 -111 -99 -167 -190 -93 -151 -169 -349 -194
-512 -10 -61 -9 -72 10 -110 46 -96 246 -191 498 -237 64 -12 128 -24 142 -28
47 -12 -144 -13 -255 -1 -135 15 -230 39 -331 85 -42 19 -79 35 -82 35 -10 0
8 -276 23 -350 39 -195 144 -440 203 -473 56 -33 190 -33 317 -1 14 3 8 -6
-19 -30 -39 -36 -112 -69 -179 -81 -20 -4 -37 -12 -37 -17 0 -34 177 -248 271
-328 161 -136 250 -190 314 -190 81 0 234 131 341 291 25 38 47 69 49 69 6 0
-21 -72 -49 -132 -40 -84 -100 -172 -161 -235 -30 -31 -54 -58 -52 -59 19 -16
147 -69 232 -97 343 -111 715 -107 1063 9 147 49 162 58 162 93 0 27 9 34 102
86 181 101 339 217 476 349 77 74 195 209 228 261 l19 30 -35 -21 c-99 -59
-166 -97 -275 -156 -207 -112 -313 -168 -321 -168 -4 0 85 62 198 139 269 181
414 289 470 348 54 59 100 152 122 250 18 82 22 203 5 203 -26 0 -162 -76
-240 -135 -157 -117 -353 -316 -530 -538 -100 -124 -109 -133 -79 -82 137 233
355 503 516 637 l75 63 -4 95 c-4 96 -28 180 -51 180 -22 0 -114 -69 -189
-143 -167 -165 -380 -495 -537 -837 l-58 -125 28 -30 c39 -41 70 -112 70 -160
l0 -40 -21 45 c-24 54 -90 125 -142 151 -35 18 -45 19 -149 8 -128 -12 -303 0
-423 31 -206 53 -376 165 -437 287 -31 64 -32 168 -1 235 90 198 369 276 478
134 35 -46 46 -124 21 -145 -20 -17 -21 -55 -2 -70 8 -7 27 -11 43 -9 31 3 42
35 25 72 -11 23 -23 96 -16 96 17 0 123 -62 127 -75 8 -19 61 -20 77 0 15 19
5 64 -17 72 -9 3 -29 1 -46 -5 -24 -9 -36 -8 -61 5 -40 21 -167 143 -160 154
8 14 183 10 256 -6 121 -25 130 -33 183 -153 48 -105 63 -169 51 -215 -9 -37
-50 -75 -95 -87 -78 -21 -44 -30 108 -30 137 0 150 2 156 19 3 10 43 84 89
165 l84 147 -107 237 c-302 664 -421 929 -421 935 0 6 350 -159 362 -171 4 -4
19 -64 34 -134 l27 -126 -27 -73 c-15 -39 -25 -73 -23 -75 8 -9 97 122 103
152 4 20 -5 87 -21 171 l-27 138 -184 95 c-102 52 -178 96 -170 98 8 2 90 -13
183 -33 92 -20 195 -41 228 -47 59 -11 61 -13 94 -67 19 -31 63 -101 97 -157
62 -99 63 -102 76 -207 7 -59 16 -107 20 -107 4 0 8 6 8 14 0 8 5 60 10 116
l11 102 -52 96 c-57 106 -156 263 -171 273 -6 4 -91 24 -190 45 -216 47 -208
52 88 55 l201 2 138 -83 c160 -96 186 -117 256 -210 29 -38 55 -67 57 -65 3 2
-16 46 -41 98 -57 118 -96 153 -283 265 l-139 83 -162 -7 c-90 -4 -163 -4
-163 -1 0 6 129 81 206 120 51 26 54 26 145 16 192 -22 388 5 527 72 106 51
212 153 261 249 22 45 25 56 10 35 -12 -16 -56 -64 -98 -106 -122 -122 -264
-179 -446 -179 -92 0 -185 10 -185 19 0 4 75 43 168 88 92 45 221 114 287 153
l120 70 -60 1 c-33 1 -68 1 -77 0 -29 -3 -21 7 30 36 59 34 183 125 178 131
-2 2 -15 -3 -28 -11 -12 -9 -52 -28 -88 -43 -63 -28 -72 -29 -274 -34 l-210
-5 -7 -29 c-12 -45 -37 -66 -81 -66 -45 0 -76 26 -85 70 -5 30 -6 30 -77 31
l-71 1 53 24 c34 16 111 34 210 50 87 13 186 34 222 44 71 21 216 88 208 95
-3 3 -58 -4 -124 -14 -65 -11 -147 -21 -182 -24 -61 -3 -63 -3 -58 18 l6 22
-63 -17 c-74 -21 -167 -35 -167 -25 0 3 5 15 10 26 13 24 14 24 -104 -6 -54
-14 -105 -25 -112 -25 -10 0 -11 6 -4 25 12 32 -1 32 -95 -1z m-656 -1045 c-9
-17 -345 -781 -607 -1381 l-55 -128 -203 0 c-220 0 -233 4 -156 48 56 31 119
99 160 171 35 64 102 209 374 821 161 362 189 419 214 442 44 39 77 48 182 48
102 0 103 0 91 -21z m94 -221 c95 -218 250 -575 258 -596 13 -34 42 -14 73 50
35 74 43 138 21 172 -36 54 19 113 65 71 25 -22 25 -36 1 -66 -10 -13 -21 -49
-25 -79 -4 -30 -10 -65 -13 -77 -5 -22 -4 -22 26 -10 18 8 39 23 47 35 27 39
84 23 84 -24 0 -33 -24 -47 -68 -39 -33 5 -45 2 -88 -29 -154 -111 -197 -129
-316 -130 -94 0 -113 6 -81 29 12 8 38 37 58 65 20 27 42 50 49 50 23 0 48 37
41 59 -19 61 -98 40 -93 -24 2 -29 -5 -42 -37 -76 -55 -57 -117 -85 -223 -104
-50 -8 -109 -22 -132 -30 -24 -8 -44 -15 -46 -15 -4 0 74 186 101 240 44 86
197 202 228 171 15 -15 50 -14 65 1 21 21 15 68 -10 77 -28 10 -48 4 -68 -20
-8 -9 -45 -31 -82 -47 l-67 -30 18 46 c11 26 38 90 60 142 23 52 58 134 78
183 20 48 37 87 38 87 2 0 19 -37 38 -82z m605 -670 c16 -16 15 -53 -2 -67 -7
-6 -27 -11 -42 -10 -16 1 -46 -6 -67 -15 l-39 -17 65 -40 c36 -21 73 -39 82
-39 49 0 76 -60 39 -90 -24 -21 -68 -1 -72 33 -6 49 -130 115 -274 147 -32 7
-58 16 -58 19 0 3 14 14 31 24 31 17 32 17 51 -3 14 -15 31 -20 71 -19 76 1
119 19 136 57 11 24 21 32 41 32 14 0 31 -5 38 -12z"/>
</g>
</svg>
